subject11_noload_free_trial03_ground_reaction																		
version=1																		
nRows=47																		
nColumns=19																		
inDegrees=no																		
endheader																		
time	ground_force_r_vx	ground_force_r_vy	ground_force_r_vz	ground_force_r_px	ground_force_r_py	ground_force_r_pz	ground_torque_r_x	ground_torque_r_y	ground_torque_r_z	ground_force_l_vx	ground_force_l_vy	ground_force_l_vz	ground_force_l_px	ground_force_l_py	ground_force_l_pz	ground_torque_l_x	ground_torque_l_y	ground_torque_l_z
1.15	0	0	0	2.428675	0	0.214245	0	0	0	-40.195028	670.807624	43.634591	0.873	0	-0.323746	0	0.394722	0
1.1505	0	0	0	2.434595	0	0.215145	0	0	0	-39.923455	670.257659	43.480342	0.873213	0	-0.323744	0	0.383161	0
1.151	0	0	0	2.440488	0	0.216039	0	0	0	-39.652741	669.717725	43.325518	0.873425	0	-0.323742	0	0.371527	0
1.1515	0	0	0	2.446355	0	0.216927	0	0	0	-39.382898	669.187716	43.170185	0.873637	0	-0.32374	0	0.359824	0
1.152	0	0	0	2.452196	0	0.217808	0	0	0	-39.113937	668.667521	43.014404	0.873849	0	-0.323738	0	0.348053	0
1.1525	0	0	0	2.458011	0	0.218682	0	0	0	-38.845872	668.157032	42.858242	0.874062	0	-0.323735	0	0.336217	0
1.153	0	0	0	2.463799	0	0.219551	0	0	0	-38.578713	667.656136	42.701762	0.874274	0	-0.323733	0	0.324318	0
1.1535	0	0	0	2.469561	0	0.220413	0	0	0	-38.312474	667.164719	42.545029	0.874487	0	-0.32373	0	0.31236	0
1.154	0	0	0	2.475297	0	0.221268	0	0	0	-38.047164	666.682662	42.388107	0.874699	0	-0.323728	0	0.300343	0
1.1545	0	0	0	2.481007	0	0.222117	0	0	0	-37.782797	666.209844	42.231061	0.874911	0	-0.323725	0	0.288272	0
1.155	0	0	0	2.48669	0	0.222959	0	0	0	-37.519381	665.746139	42.073956	0.875124	0	-0.323722	0	0.27615	0
1.1555	0	0	0	2.492347	0	0.223795	0	0	0	-37.256928	665.291419	41.916857	0.875336	0	-0.32372	0	0.263979	0
1.156	0	0	0	2.497978	0	0.224625	0	0	0	-36.995446	664.845556	41.759829	0.875549	0	-0.323717	0	0.251764	0
1.1565	0	0	0	2.503582	0	0.225448	0	0	0	-36.734943	664.408421	41.602936	0.875761	0	-0.323714	0	0.239507	0
1.157	0	0	0	2.50916	0	0.226265	0	0	0	-36.475424	663.97989	41.446244	0.875973	0	-0.323711	0	0.227214	0
1.1575	0	0	0	2.514711	0	0.227075	0	0	0	-36.216898	663.559838	41.289815	0.876185	0	-0.323708	0	0.214889	0
1.158	0	0	0	2.520236	0	0.227879	0	0	0	-35.95937	663.148145	41.133713	0.876398	0	-0.323705	0	0.202534	0
1.1585	0	0	0	2.525734	0	0.228676	0	0	0	-35.702848	662.744691	40.977999	0.87661	0	-0.323701	0	0.190154	0
1.159	0	0	0	2.531206	0	0.229467	0	0	0	-35.447336	662.349358	40.822731	0.876822	0	-0.323698	0	0.177751	0
1.1595	0	0	0	2.536651	0	0.230252	0	0	0	-35.192841	661.962028	40.667971	0.877034	0	-0.323695	0	0.16533	0
1.16	0	0	0	2.542069	0	0.23103	0	0	0	-34.939368	661.582583	40.513774	0.877246	0	-0.323692	0	0.152891	0
1.1605	0	0	0	2.547461	0	0.231801	0	0	0	-34.686922	661.210906	40.360201	0.877458	0	-0.323689	0	0.14044	0
1.161	0	0	0	2.552826	0	0.232566	0	0	0	-34.435506	660.846882	40.207307	0.87767	0	-0.323685	0	0.127978	0
1.1615	0	0	0	2.558165	0	0.233325	0	0	0	-34.185124	660.490395	40.055149	0.877881	0	-0.323682	0	0.115509	0
1.162	0	0	0	2.563477	0	0.234077	0	0	0	-33.93578	660.141328	39.903781	0.878093	0	-0.323678	0	0.103035	0
1.1625	0	0	0	2.568762	0	0.234822	0	0	0	-33.687478	659.799566	39.753258	0.878305	0	-0.323675	0	0.09056	0
1.163	0	0	0	2.574021	0	0.235562	0	0	0	-33.440219	659.464996	39.603634	0.878516	0	-0.323672	0	0.078087	0
1.1635	0	0	0	2.579252	0	0.236294	0	0	0	-33.194008	659.137505	39.45496	0.878728	0	-0.323668	0	0.065618	0
1.164	0	0	0	2.584457	0	0.237021	0	0	0	-32.948847	658.816982	39.307288	0.878939	0	-0.323665	0	0.053155	0
1.1645	0	0	0	2.589635	0	0.23774	0	0	0	-32.704738	658.503318	39.160667	0.87915	0	-0.323661	0	0.040701	0
1.165	0	0	0	2.594786	0	0.238454	0	0	0	-32.461683	658.196404	39.015145	0.879361	0	-0.323658	0	0.028258	0
1.1655	0	0	0	2.599911	0	0.239161	0	0	0	-32.219682	657.896135	38.870769	0.879573	0	-0.323654	0	0.015826	0
1.166	0	0	0	2.605008	0	0.239861	0	0	0	-31.978735	657.602408	38.727586	0.879784	0	-0.323651	0	0.003409	0
1.1665	0	0	0	2.610078	0	0.240555	0	0	0	-31.738839	657.315124	38.585642	0.879994	0	-0.323647	0	-0.008993	0
1.167	0	0	0	2.615122	0	0.241242	0	0	0	-31.499994	657.034183	38.44498	0.880205	0	-0.323643	0	-0.021377	0
1.1675	0	0	0	2.620138	0	0.241923	0	0	0	-31.262196	656.759488	38.305646	0.880416	0	-0.32364	0	-0.033744	0
1.168	0	0	0	2.625128	0	0.242598	0	0	0	-31.025441	656.490943	38.167683	0.880626	0	-0.323636	0	-0.046093	0
1.1685	0	0	0	2.63009	0	0.243266	0	0	0	-30.789724	656.22845	38.031134	0.880836	0	-0.323633	0	-0.058423	0
1.169	0	0	0	2.635026	0	0.243927	0	0	0	-30.555041	655.971915	37.896041	0.881047	0	-0.323629	0	-0.070735	0
1.1695	0	0	0	2.639934	0	0.244582	0	0	0	-30.321384	655.721241	37.762446	0.881257	0	-0.323626	0	-0.083028	0
1.17	0	0	0	2.644815	0	0.245231	0	0	0	-30.088745	655.476338	37.630387	0.881467	0	-0.323623	0	-0.095303	0
1.1705	0	0	0	2.649669	0	0.245873	0	0	0	-29.857116	655.237116	37.499904	0.881676	0	-0.323619	0	-0.10756	0
1.171	0	0	0	2.654496	0	0.246508	0	0	0	-29.626485	655.003491	37.371032	0.881886	0	-0.323616	0	-0.1198	0
1.1715	0	0	0	2.659296	0	0.247137	0	0	0	-29.396839	654.77538	37.243807	0.882095	0	-0.323613	0	-0.132021	0
1.172	0	0	0	2.664069	0	0.24776	0	0	0	-29.168164	654.552704	37.118261	0.882305	0	-0.32361	0	-0.144226	0
1.1725	0	0	0	2.668814	0	0.248376	0	0	0	-28.940446	654.335389	36.994427	0.882514	0	-0.323606	0	-0.156413	0
1.173	0	0	0	2.673532	0	0.248986	0	0	0	-28.713669	654.123366	36.872336	0.882723	0	-0.323603	0	-0.168584	0
